<?xml version="1.0"?>
<svg xmlns="http://www.w3.org/2000/svg" style="display:none">
  <symbol id="outline-adjustments-horizontal" viewBox="0 0 24 24" fill="none" stroke="currentColor">
    <path stroke-linecap="round" stroke-linejoin="round" d="M10.5 6h9.75M10.5 6a1.5 1.5 0 1 1-3 0m3 0a1.5 1.5 0 1 0-3 0M3.75 6H7.5m3 12h9.75m-9.75 0a1.5 1.5 0 0 1-3 0m3 0a1.5 1.5 0 0 0-3 0m-3.75 0H7.5m9-6h3.75m-3.75 0a1.5 1.5 0 0 1-3 0m3 0a1.5 1.5 0 0 0-3 0m-9.75 0h9.75"/>
  </symbol>
  <symbol id="outline-adjustments-vertical" viewBox="0 0 24 24" fill="none" stroke="currentColor">
    <path stroke-linecap="round" stroke-linejoin="round" d="M6 13.5V3.75m0 9.75a1.5 1.5 0 0 1 0 3m0-3a1.5 1.5 0 0 0 0 3m0 3.75V16.5m12-3V3.75m0 9.75a1.5 1.5 0 0 1 0 3m0-3a1.5 1.5 0 0 0 0 3m0 3.75V16.5m-6-9V3.75m0 3.75a1.5 1.5 0 0 1 0 3m0-3a1.5 1.5 0 0 0 0 3m0 9.75V10.5"/>
  </symbol>
  <symbol id="outline-archive-box" viewBox="0 0 24 24" fill="none" stroke="currentColor">
    <path stroke-linecap="round" stroke-linejoin="round" d="m20.25 7.5-.625 10.632a2.25 2.25 0 0 1-2.247 2.118H6.622a2.25 2.25 0 0 1-2.247-2.118L3.75 7.5M10 11.25h4M3.375 7.5h17.25c.621 0 1.125-.504 1.125-1.125v-1.5c0-.621-.504-1.125-1.125-1.125H3.375c-.621 0-1.125.504-1.125 1.125v1.5c0 .621.504 1.125 1.125 1.125Z"/>
  </symbol>
  <symbol id="outline-arrow-down-on-square" viewBox="0 0 24 24" fill="none" stroke="currentColor">
    <path stroke-linecap="round" stroke-linejoin="round" d="M9 8.25H7.5a2.25 2.25 0 0 0-2.25 2.25v9a2.25 2.25 0 0 0 2.25 2.25h9a2.25 2.25 0 0 0 2.25-2.25v-9a2.25 2.25 0 0 0-2.25-2.25H15M9 12l3 3m0 0 3-3m-3 3V2.25"/>
  </symbol>
  <symbol id="outline-arrow-down-tray" viewBox="0 0 24 24" fill="none" stroke="currentColor">
    <path stroke-linecap="round" stroke-linejoin="round" d="M3 16.5v2.25A2.25 2.25 0 0 0 5.25 21h13.5A2.25 2.25 0 0 0 21 18.75V16.5M16.5 12 12 16.5m0 0L7.5 12m4.5 4.5V3"/>
  </symbol>
  <symbol id="outline-arrow-left" viewBox="0 0 24 24" fill="none" stroke="currentColor">
    <path stroke-linecap="round" stroke-linejoin="round" d="M10.5 19.5 3 12m0 0 7.5-7.5M3 12h18"/>
  </symbol>
  <symbol id="outline-arrow-path" viewBox="0 0 24 24" fill="none" stroke="currentColor">
    <path stroke-linecap="round" stroke-linejoin="round" d="M16.023 9.348h4.992v-.001M2.985 19.644v-4.992m0 0h4.992m-4.993 0 3.181 3.183a8.25 8.25 0 0 0 13.803-3.7M4.031 9.865a8.25 8.25 0 0 1 13.803-3.7l3.181 3.182m0-4.991v4.99"/>
  </symbol>
  <symbol id="outline-arrow-right-on-rectangle" viewBox="0 0 24 24" fill="none" stroke="currentColor">
    <path stroke-linecap="round" stroke-linejoin="round" d="M15.75 9V5.25A2.25 2.25 0 0 0 13.5 3h-6a2.25 2.25 0 0 0-2.25 2.25v13.5A2.25 2.25 0 0 0 7.5 21h6a2.25 2.25 0 0 0 2.25-2.25V15m3 0 3-3m0 0-3-3m3 3H9"/>
  </symbol>
  <symbol id="outline-arrow-top-right-on-square" viewBox="0 0 24 24" fill="none" stroke="currentColor">
    <path stroke-linecap="round" stroke-linejoin="round" d="M13.5 6H5.25A2.25 2.25 0 0 0 3 8.25v10.5A2.25 2.25 0 0 0 5.25 21h10.5A2.25 2.25 0 0 0 18 18.75V10.5m-10.5 6L21 3m0 0h-5.25M21 3v5.25"/>
  </symbol>
  <symbol id="outline-arrow-trending-up" viewBox="0 0 24 24" fill="none" stroke="currentColor">
    <path stroke-linecap="round" stroke-linejoin="round" d="M2.25 18 9 11.25l4.306 4.306a11.95 11.95 0 0 1 5.814-5.518l2.74-1.22m0 0-5.94-2.281m5.94 2.28-2.28 5.941"/>
  </symbol>
  <symbol id="outline-arrow-up-right" viewBox="0 0 24 24" fill="none" stroke="currentColor">
    <path stroke-linecap="round" stroke-linejoin="round" d="m4.5 19.5 15-15m0 0H8.25m11.25 0v11.25"/>
  </symbol>
  <symbol id="outline-arrow-up-tray" viewBox="0 0 24 24" fill="none" stroke="currentColor">
    <path stroke-linecap="round" stroke-linejoin="round" d="M3 16.5v2.25A2.25 2.25 0 0 0 5.25 21h13.5A2.25 2.25 0 0 0 21 18.75V16.5m-13.5-9L12 3m0 0 4.5 4.5M12 3v13.5"/>
  </symbol>
  <symbol id="outline-arrow-uturn-left" viewBox="0 0 24 24" fill="none" stroke="currentColor">
    <path stroke-linecap="round" stroke-linejoin="round" d="M9 15 3 9m0 0 6-6M3 9h12a6 6 0 0 1 0 12h-3"/>
  </symbol>
  <symbol id="outline-arrows-up-down" viewBox="0 0 24 24" fill="none" stroke="currentColor">
    <path stroke-linecap="round" stroke-linejoin="round" d="M3 7.5 7.5 3m0 0L12 7.5M7.5 3v13.5m13.5 0L16.5 21m0 0L12 16.5m4.5 4.5V7.5"/>
  </symbol>
  <symbol id="outline-bars-3" viewBox="0 0 24 24" fill="none" stroke="currentColor">
    <path stroke-linecap="round" stroke-linejoin="round" d="M3.75 6.75h16.5M3.75 12h16.5m-16.5 5.25h16.5"/>
  </symbol>
  <symbol id="outline-beaker" viewBox="0 0 24 24" fill="none" stroke="currentColor">
    <path stroke-linecap="round" stroke-linejoin="round" d="M9.75 3.104v5.714a2.25 2.25 0 0 1-.659 1.591L5 14.5M9.75 3.104c-.251.023-.501.05-.75.082m.75-.082a24.301 24.301 0 0 1 4.5 0m0 0v5.714c0 .597.237 1.17.659 1.591L19.8 15.3M14.25 3.104c.251.023.501.05.75.082M19.8 15.3l-1.57.393A9.065 9.065 0 0 1 12 15a9.065 9.065 0 0 0-6.23-.693L5 14.5m14.8.8 1.402 1.402c1.232 1.232.65 3.318-1.067 3.611A48.309 48.309 0 0 1 12 21c-2.773 0-5.491-.235-8.135-.687-1.718-.293-2.3-2.379-1.067-3.61L5 14.5"/>
  </symbol>
  <symbol id="outline-bolt" viewBox="0 0 24 24" fill="none" stroke="currentColor">
    <path stroke-linecap="round" stroke-linejoin="round" d="m3.75 13.5 10.5-11.25L12 10.5h8.25L9.75 21.75 12 13.5H3.75Z"/>
  </symbol>
  <symbol id="outline-bug-ant" viewBox="0 0 24 24" fill="none" stroke="currentColor">
    <path stroke-linecap="round" stroke-linejoin="round" d="M12 12.75c1.148 0 2.278.08 3.383.237 1.037.146 1.866.966 1.866 2.013 0 3.728-2.35 6.75-5.25 6.75S6.75 18.728 6.75 15c0-1.046.83-1.867 1.866-2.013A24.204 24.204 0 0 1 12 12.75Zm0 0c2.883 0 5.647.508 8.207 1.44a23.91 23.91 0 0 1-1.152 6.06M12 12.75c-2.883 0-5.647.508-8.208 1.44.125 2.104.52 4.136 1.153 6.06M12 12.75a2.25 2.25 0 0 0 2.248-2.354M12 12.75a2.25 2.25 0 0 1-2.248-2.354M12 8.25c.995 0 1.971-.08 2.922-.236.403-.066.74-.358.795-.762a3.778 3.778 0 0 0-.399-2.25M12 8.25c-.995 0-1.97-.08-2.922-.236-.402-.066-.74-.358-.795-.762a3.734 3.734 0 0 1 .4-2.253M12 8.25a2.25 2.25 0 0 0-2.248 2.146M12 8.25a2.25 2.25 0 0 1 2.248 2.146M8.683 5a6.032 6.032 0 0 1-1.155-1.002c.07-.63.27-1.222.574-1.747m.581 2.749A3.75 3.75 0 0 1 15.318 5m0 0c.427-.283.815-.62 1.155-.999a4.471 4.471 0 0 0-.575-1.752M4.921 6a24.048 24.048 0 0 0-.392 3.314c1.668.546 3.416.914 5.223 1.082M19.08 6c.205 1.08.337 2.187.392 3.314a23.882 23.882 0 0 1-5.223 1.082"/>
  </symbol>
  <symbol id="outline-calendar" viewBox="0 0 24 24" fill="none" stroke="currentColor">
    <path stroke-linecap="round" stroke-linejoin="round" d="M6.75 3v2.25M17.25 3v2.25M3 18.75V7.5a2.25 2.25 0 0 1 2.25-2.25h13.5A2.25 2.25 0 0 1 21 7.5v11.25m-18 0A2.25 2.25 0 0 0 5.25 21h13.5A2.25 2.25 0 0 0 21 18.75m-18 0v-7.5A2.25 2.25 0 0 1 5.25 9h13.5A2.25 2.25 0 0 1 21 11.25v7.5"/>
  </symbol>
  <symbol id="outline-camera" viewBox="0 0 24 24" fill="none" stroke="currentColor">
    <path stroke-linecap="round" stroke-linejoin="round" d="M6.827 6.175A2.31 2.31 0 0 1 5.186 7.23c-.38.054-.757.112-1.134.175C2.999 7.58 2.25 8.507 2.25 9.574V18a2.25 2.25 0 0 0 2.25 2.25h15A2.25 2.25 0 0 0 21.75 18V9.574c0-1.067-.75-1.994-1.802-2.169a47.865 47.865 0 0 0-1.134-.175 2.31 2.31 0 0 1-1.64-1.055l-.822-1.316a2.192 2.192 0 0 0-1.736-1.039 48.774 48.774 0 0 0-5.232 0 2.192 2.192 0 0 0-1.736 1.039l-.821 1.316Z"/>
    <path stroke-linecap="round" stroke-linejoin="round" d="M16.5 12.75a4.5 4.5 0 1 1-9 0 4.5 4.5 0 0 1 9 0ZM18.75 10.5h.008v.008h-.008V10.5Z"/>
  </symbol>
  <symbol id="outline-chart-bar-square" viewBox="0 0 24 24" fill="none" stroke="currentColor">
    <path stroke-linecap="round" stroke-linejoin="round" d="M7.5 14.25v2.25m3-4.5v4.5m3-6.75v6.75m3-9v9M6 20.25h12A2.25 2.25 0 0 0 20.25 18V6A2.25 2.25 0 0 0 18 3.75H6A2.25 2.25 0 0 0 3.75 6v12A2.25 2.25 0 0 0 6 20.25Z"/>
  </symbol>
  <symbol id="outline-chart-bar" viewBox="0 0 24 24" fill="none" stroke="currentColor">
    <path stroke-linecap="round" stroke-linejoin="round" d="M3 13.125C3 12.504 3.504 12 4.125 12h2.25c.621 0 1.125.504 1.125 1.125v6.75C7.5 20.496 6.996 21 6.375 21h-2.25A1.125 1.125 0 0 1 3 19.875v-6.75ZM9.75 8.625c0-.621.504-1.125 1.125-1.125h2.25c.621 0 1.125.504 1.125 1.125v11.25c0 .621-.504 1.125-1.125 1.125h-2.25a1.125 1.125 0 0 1-1.125-1.125V8.625ZM16.5 4.125c0-.621.504-1.125 1.125-1.125h2.25C20.496 3 21 3.504 21 4.125v15.75c0 .621-.504 1.125-1.125 1.125h-2.25a1.125 1.125 0 0 1-1.125-1.125V4.125Z"/>
  </symbol>
  <symbol id="outline-chat-bubble-bottom-center-text" viewBox="0 0 24 24" fill="none" stroke="currentColor">
    <path stroke-linecap="round" stroke-linejoin="round" d="M7.5 8.25h9m-9 3H12m-9.75 1.51c0 1.6 1.123 2.994 2.707 3.227 1.129.166 2.27.293 3.423.379.35.026.67.21.865.501L12 21l2.755-4.133a1.14 1.14 0 0 1 .865-.501 48.172 48.172 0 0 0 3.423-.379c1.584-.233 2.707-1.626 2.707-3.228V6.741c0-1.602-1.123-2.995-2.707-3.228A48.394 48.394 0 0 0 12 3c-2.392 0-4.744.175-7.043.513C3.373 3.746 2.25 5.14 2.25 6.741v6.018Z"/>
  </symbol>
  <symbol id="outline-chat-bubble-left-right" viewBox="0 0 24 24" fill="none" stroke="currentColor">
    <path stroke-linecap="round" stroke-linejoin="round" d="M20.25 8.511c.884.284 1.5 1.128 1.5 2.097v4.286c0 1.136-.847 2.1-1.98 2.193-.34.027-.68.052-1.02.072v3.091l-3-3c-1.354 0-2.694-.055-4.02-.163a2.115 2.115 0 0 1-.825-.242m9.345-8.334a2.126 2.126 0 0 0-.476-.095 48.64 48.64 0 0 0-8.048 0c-1.131.094-1.976 1.057-1.976 2.192v4.286c0 .837.46 1.58 1.155 1.951m9.345-8.334V6.637c0-1.621-1.152-3.026-2.76-3.235A48.455 48.455 0 0 0 11.25 3c-2.115 0-4.198.137-6.24.402-1.608.209-2.76 1.614-2.76 3.235v6.226c0 1.621 1.152 3.026 2.76 3.235.577.075 1.157.14 1.74.194V21l4.155-4.155"/>
  </symbol>
  <symbol id="outline-check-circle" viewBox="0 0 24 24" fill="none" stroke="currentColor">
    <path stroke-linecap="round" stroke-linejoin="round" d="M9 12.75 11.25 15 15 9.75M21 12a9 9 0 1 1-18 0 9 9 0 0 1 18 0Z"/>
  </symbol>
  <symbol id="outline-check" viewBox="0 0 24 24" fill="none" stroke="currentColor">
    <path stroke-linecap="round" stroke-linejoin="round" d="m4.5 12.75 6 6 9-13.5"/>
  </symbol>
  <symbol id="outline-chevron-down" viewBox="0 0 24 24" fill="none" stroke="currentColor">
    <path stroke-linecap="round" stroke-linejoin="round" d="m19.5 8.25-7.5 7.5-7.5-7.5"/>
  </symbol>
  <symbol id="outline-chevron-left" viewBox="0 0 24 24" fill="none" stroke="currentColor">
    <path stroke-linecap="round" stroke-linejoin="round" d="M15.75 19.5 8.25 12l7.5-7.5"/>
  </symbol>
  <symbol id="outline-chevron-right" viewBox="0 0 24 24" fill="none" stroke="currentColor">
    <path stroke-linecap="round" stroke-linejoin="round" d="m8.25 4.5 7.5 7.5-7.5 7.5"/>
  </symbol>
  <symbol id="outline-chevron-up-down" viewBox="0 0 24 24" fill="none" stroke="currentColor">
    <path stroke-linecap="round" stroke-linejoin="round" d="M8.25 15 12 18.75 15.75 15m-7.5-6L12 5.25 15.75 9"/>
  </symbol>
  <symbol id="outline-chevron-up" viewBox="0 0 24 24" fill="none" stroke="currentColor">
    <path stroke-linecap="round" stroke-linejoin="round" d="m4.5 15.75 7.5-7.5 7.5 7.5"/>
  </symbol>
  <symbol id="outline-circle-stack" viewBox="0 0 24 24" fill="none" stroke="currentColor">
    <path stroke-linecap="round" stroke-linejoin="round" d="M20.25 6.375c0 2.278-3.694 4.125-8.25 4.125S3.75 8.653 3.75 6.375m16.5 0c0-2.278-3.694-4.125-8.25-4.125S3.75 4.097 3.75 6.375m16.5 0v11.25c0 2.278-3.694 4.125-8.25 4.125s-8.25-1.847-8.25-4.125V6.375m16.5 0v3.75m-16.5-3.75v3.75m16.5 0v3.75C20.25 16.153 16.556 18 12 18s-8.25-1.847-8.25-4.125v-3.75m16.5 0c0 2.278-3.694 4.125-8.25 4.125s-8.25-1.847-8.25-4.125"/>
  </symbol>
  <symbol id="outline-clipboard-document" viewBox="0 0 24 24" fill="none" stroke="currentColor">
    <path stroke-linecap="round" stroke-linejoin="round" d="M8.25 7.5V6.108c0-1.135.845-2.098 1.976-2.192.373-.03.748-.057 1.123-.08M15.75 18H18a2.25 2.25 0 0 0 2.25-2.25V6.108c0-1.135-.845-2.098-1.976-2.192a48.424 48.424 0 0 0-1.123-.08M15.75 18.75v-1.875a3.375 3.375 0 0 0-3.375-3.375h-1.5a1.125 1.125 0 0 1-1.125-1.125v-1.5A3.375 3.375 0 0 0 6.375 7.5H5.25m11.9-3.664A2.251 2.251 0 0 0 15 2.25h-1.5a2.251 2.251 0 0 0-2.15 1.586m5.8 0c.065.21.1.433.1.664v.75h-6V4.5c0-.231.035-.454.1-.664M6.75 7.5H4.875c-.621 0-1.125.504-1.125 1.125v12c0 .621.504 1.125 1.125 1.125h9.75c.621 0 1.125-.504 1.125-1.125V16.5a9 9 0 0 0-9-9Z"/>
  </symbol>
  <symbol id="outline-clock" viewBox="0 0 24 24" fill="none" stroke="currentColor">
    <path stroke-linecap="round" stroke-linejoin="round" d="M12 6v6h4.5m4.5 0a9 9 0 1 1-18 0 9 9 0 0 1 18 0Z"/>
  </symbol>
  <symbol id="outline-code-bracket-square" viewBox="0 0 24 24" fill="none" stroke="currentColor">
    <path stroke-linecap="round" stroke-linejoin="round" d="M14.25 9.75 16.5 12l-2.25 2.25m-4.5 0L7.5 12l2.25-2.25M6 20.25h12A2.25 2.25 0 0 0 20.25 18V6A2.25 2.25 0 0 0 18 3.75H6A2.25 2.25 0 0 0 3.75 6v12A2.25 2.25 0 0 0 6 20.25Z"/>
  </symbol>
  <symbol id="outline-code-bracket" viewBox="0 0 24 24" fill="none" stroke="currentColor">
    <path stroke-linecap="round" stroke-linejoin="round" d="M17.25 6.75 22.5 12l-5.25 5.25m-10.5 0L1.5 12l5.25-5.25m7.5-3-4.5 16.5"/>
  </symbol>
  <symbol id="outline-cog-6-tooth" viewBox="0 0 24 24" fill="none" stroke="currentColor">
    <path stroke-linecap="round" stroke-linejoin="round" d="M9.594 3.94c.09-.542.56-.94 1.11-.94h2.593c.55 0 1.02.398 1.11.94l.213 1.281c.063.374.313.686.645.87.074.04.147.083.22.127.325.196.72.257 1.075.124l1.217-.456a1.125 1.125 0 0 1 1.37.49l1.296 2.247a1.125 1.125 0 0 1-.26 1.431l-1.003.827c-.293.241-.438.613-.43.992a7.723 7.723 0 0 1 0 .255c-.008.378.137.75.43.991l1.004.827c.424.35.534.955.26 1.43l-1.298 2.247a1.125 1.125 0 0 1-1.369.491l-1.217-.456c-.355-.133-.75-.072-1.076.124a6.47 6.47 0 0 1-.22.128c-.331.183-.581.495-.644.869l-.213 1.281c-.09.543-.56.94-1.11.94h-2.594c-.55 0-1.019-.398-1.11-.94l-.213-1.281c-.062-.374-.312-.686-.644-.87a6.52 6.52 0 0 1-.22-.127c-.325-.196-.72-.257-1.076-.124l-1.217.456a1.125 1.125 0 0 1-1.369-.49l-1.297-2.247a1.125 1.125 0 0 1 .26-1.431l1.004-.827c.292-.24.437-.613.43-.991a6.932 6.932 0 0 1 0-.255c.007-.38-.138-.751-.43-.992l-1.004-.827a1.125 1.125 0 0 1-.26-1.43l1.297-2.247a1.125 1.125 0 0 1 1.37-.491l1.216.456c.356.133.751.072 1.076-.124.072-.044.146-.086.22-.128.332-.183.582-.495.644-.869l.214-1.28Z"/>
    <path stroke-linecap="round" stroke-linejoin="round" d="M15 12a3 3 0 1 1-6 0 3 3 0 0 1 6 0Z"/>
  </symbol>
  <symbol id="outline-computer-desktop" viewBox="0 0 24 24" fill="none" stroke="currentColor">
    <path stroke-linecap="round" stroke-linejoin="round" d="M9 17.25v1.007a3 3 0 0 1-.879 2.122L7.5 21h9l-.621-.621A3 3 0 0 1 15 18.257V17.25m6-12V15a2.25 2.25 0 0 1-2.25 2.25H5.25A2.25 2.25 0 0 1 3 15V5.25m18 0A2.25 2.25 0 0 0 18.75 3H5.25A2.25 2.25 0 0 0 3 5.25m18 0V12a2.25 2.25 0 0 1-2.25 2.25H5.25A2.25 2.25 0 0 1 3 12V5.25"/>
  </symbol>
  <symbol id="outline-cpu-chip" viewBox="0 0 24 24" fill="none" stroke="currentColor">
    <path stroke-linecap="round" stroke-linejoin="round" d="M8.25 3v1.5M4.5 8.25H3m18 0h-1.5M4.5 12H3m18 0h-1.5m-15 3.75H3m18 0h-1.5M8.25 19.5V21M12 3v1.5m0 15V21m3.75-18v1.5m0 15V21m-9-1.5h10.5a2.25 2.25 0 0 0 2.25-2.25V6.75a2.25 2.25 0 0 0-2.25-2.25H6.75A2.25 2.25 0 0 0 4.5 6.75v10.5a2.25 2.25 0 0 0 2.25 2.25Zm.75-12h9v9h-9v-9Z"/>
  </symbol>
  <symbol id="outline-cube-transparent" viewBox="0 0 24 24" fill="none" stroke="currentColor">
    <path stroke-linecap="round" stroke-linejoin="round" d="m21 7.5-2.25-1.313M21 7.5v2.25m0-2.25-2.25 1.313M3 7.5l2.25-1.313M3 7.5l2.25 1.313M3 7.5v2.25m9 3 2.25-1.313M12 12.75l-2.25-1.313M12 12.75V15m0 6.75 2.25-1.313M12 21.75V19.5m0 2.25-2.25-1.313m0-16.875L12 2.25l2.25 1.313M21 14.25v2.25l-2.25 1.313m-13.5 0L3 16.5v-2.25"/>
  </symbol>
  <symbol id="outline-currency-dollar" viewBox="0 0 24 24" fill="none" stroke="currentColor">
    <path stroke-linecap="round" stroke-linejoin="round" d="M12 6v12m-3-2.818.879.659c1.171.879 3.07.879 4.242 0 1.172-.879 1.172-2.303 0-3.182C13.536 12.219 12.768 12 12 12c-.725 0-1.45-.22-2.003-.659-1.106-.879-1.106-2.303 0-3.182s2.9-.879 4.006 0l.415.33M21 12a9 9 0 1 1-18 0 9 9 0 0 1 18 0Z"/>
  </symbol>
  <symbol id="outline-cursor-arrow-rays" viewBox="0 0 24 24" fill="none" stroke="currentColor">
    <path stroke-linecap="round" stroke-linejoin="round" d="M15.042 21.672 13.684 16.6m0 0-2.51 2.225.569-9.47 5.227 7.917-3.286-.672ZM12 2.25V4.5m5.834.166-1.591 1.591M20.25 10.5H18M7.757 14.743l-1.59 1.59M6 10.5H3.75m4.007-4.243-1.59-1.59"/>
  </symbol>
  <symbol id="outline-device-phone-mobile" viewBox="0 0 24 24" fill="none" stroke="currentColor">
    <path stroke-linecap="round" stroke-linejoin="round" d="M10.5 1.5H8.25A2.25 2.25 0 0 0 6 3.75v16.5a2.25 2.25 0 0 0 2.25 2.25h7.5A2.25 2.25 0 0 0 18 20.25V3.75a2.25 2.25 0 0 0-2.25-2.25H13.5m-3 0V3h3V1.5m-3 0h3m-3 18.75h3"/>
  </symbol>
  <symbol id="outline-document-duplicate" viewBox="0 0 24 24" fill="none" stroke="currentColor">
    <path stroke-linecap="round" stroke-linejoin="round" d="M15.75 17.25v3.375c0 .621-.504 1.125-1.125 1.125h-9.75a1.125 1.125 0 0 1-1.125-1.125V7.875c0-.621.504-1.125 1.125-1.125H6.75a9.06 9.06 0 0 1 1.5.124m7.5 10.376h3.375c.621 0 1.125-.504 1.125-1.125V11.25c0-4.46-3.243-8.161-7.5-8.876a9.06 9.06 0 0 0-1.5-.124H9.375c-.621 0-1.125.504-1.125 1.125v3.5m7.5 10.375H9.375a1.125 1.125 0 0 1-1.125-1.125v-9.25m12 6.625v-1.875a3.375 3.375 0 0 0-3.375-3.375h-1.5a1.125 1.125 0 0 1-1.125-1.125v-1.5a3.375 3.375 0 0 0-3.375-3.375H9.75"/>
  </symbol>
  <symbol id="outline-document-text" viewBox="0 0 24 24" fill="none" stroke="currentColor">
    <path stroke-linecap="round" stroke-linejoin="round" d="M19.5 14.25v-2.625a3.375 3.375 0 0 0-3.375-3.375h-1.5A1.125 1.125 0 0 1 13.5 7.125v-1.5a3.375 3.375 0 0 0-3.375-3.375H8.25m0 12.75h7.5m-7.5 3H12M10.5 2.25H5.625c-.621 0-1.125.504-1.125 1.125v17.25c0 .621.504 1.125 1.125 1.125h12.75c.621 0 1.125-.504 1.125-1.125V11.25a9 9 0 0 0-9-9Z"/>
  </symbol>
  <symbol id="outline-document" viewBox="0 0 24 24" fill="none" stroke="currentColor">
    <path stroke-linecap="round" stroke-linejoin="round" d="M19.5 14.25v-2.625a3.375 3.375 0 0 0-3.375-3.375h-1.5A1.125 1.125 0 0 1 13.5 7.125v-1.5a3.375 3.375 0 0 0-3.375-3.375H8.25m2.25 0H5.625c-.621 0-1.125.504-1.125 1.125v17.25c0 .621.504 1.125 1.125 1.125h12.75c.621 0 1.125-.504 1.125-1.125V11.25a9 9 0 0 0-9-9Z"/>
  </symbol>
  <symbol id="outline-envelope" viewBox="0 0 24 24" fill="none" stroke="currentColor">
    <path stroke-linecap="round" stroke-linejoin="round" d="M21.75 6.75v10.5a2.25 2.25 0 0 1-2.25 2.25h-15a2.25 2.25 0 0 1-2.25-2.25V6.75m19.5 0A2.25 2.25 0 0 0 19.5 4.5h-15a2.25 2.25 0 0 0-2.25 2.25m19.5 0v.243a2.25 2.25 0 0 1-1.07 1.916l-7.5 4.615a2.25 2.25 0 0 1-2.36 0L3.32 8.91a2.25 2.25 0 0 1-1.07-1.916V6.75"/>
  </symbol>
  <symbol id="outline-exclamation-circle" viewBox="0 0 24 24" fill="none" stroke="currentColor">
    <path stroke-linecap="round" stroke-linejoin="round" d="M12 9v3.75m9-.75a9 9 0 1 1-18 0 9 9 0 0 1 18 0Zm-9 3.75h.008v.008H12v-.008Z"/>
  </symbol>
  <symbol id="outline-exclamation-triangle" viewBox="0 0 24 24" fill="none" stroke="currentColor">
    <path stroke-linecap="round" stroke-linejoin="round" d="M12 9v3.75m-9.303 3.376c-.866 1.5.217 3.374 1.948 3.374h14.71c1.73 0 2.813-1.874 1.948-3.374L13.949 3.378c-.866-1.5-3.032-1.5-3.898 0L2.697 16.126ZM12 15.75h.007v.008H12v-.008Z"/>
  </symbol>
  <symbol id="outline-eye-slash" viewBox="0 0 24 24" fill="none" stroke="currentColor">
    <path stroke-linecap="round" stroke-linejoin="round" d="M3.98 8.223A10.477 10.477 0 0 0 1.934 12C3.226 16.338 7.244 19.5 12 19.5c.993 0 1.953-.138 2.863-.395M6.228 6.228A10.451 10.451 0 0 1 12 4.5c4.756 0 8.773 3.162 10.065 7.498a10.522 10.522 0 0 1-4.293 5.774M6.228 6.228 3 3m3.228 3.228 3.65 3.65m7.894 7.894L21 21m-3.228-3.228-3.65-3.65m0 0a3 3 0 1 0-4.243-4.243m4.242 4.242L9.88 9.88"/>
  </symbol>
  <symbol id="outline-eye" viewBox="0 0 24 24" fill="none" stroke="currentColor">
    <path stroke-linecap="round" stroke-linejoin="round" d="M2.036 12.322a1.012 1.012 0 0 1 0-.639C3.423 7.51 7.36 4.5 12 4.5c4.638 0 8.573 3.007 9.963 7.178.07.207.07.431 0 .639C20.577 16.49 16.64 19.5 12 19.5c-4.638 0-8.573-3.007-9.963-7.178Z"/>
    <path stroke-linecap="round" stroke-linejoin="round" d="M15 12a3 3 0 1 1-6 0 3 3 0 0 1 6 0Z"/>
  </symbol>
  <symbol id="outline-face-frown" viewBox="0 0 24 24" fill="none" stroke="currentColor">
    <path stroke-linecap="round" stroke-linejoin="round" d="M15.182 16.318A4.486 4.486 0 0 0 12.016 15a4.486 4.486 0 0 0-3.198 1.318M21 12a9 9 0 1 1-18 0 9 9 0 0 1 18 0ZM9.75 9.75c0 .414-.168.75-.375.75S9 10.164 9 9.75 9.168 9 9.375 9s.375.336.375.75Zm-.375 0h.008v.015h-.008V9.75Zm5.625 0c0 .414-.168.75-.375.75s-.375-.336-.375-.75.168-.75.375-.75.375.336.375.75Zm-.375 0h.008v.015h-.008V9.75Z"/>
  </symbol>
  <symbol id="outline-face-smile" viewBox="0 0 24 24" fill="none" stroke="currentColor">
    <path stroke-linecap="round" stroke-linejoin="round" d="M15.182 15.182a4.5 4.5 0 0 1-6.364 0M21 12a9 9 0 1 1-18 0 9 9 0 0 1 18 0ZM9.75 9.75c0 .414-.168.75-.375.75S9 10.164 9 9.75 9.168 9 9.375 9s.375.336.375.75Zm-.375 0h.008v.015h-.008V9.75Zm5.625 0c0 .414-.168.75-.375.75s-.375-.336-.375-.75.168-.75.375-.75.375.336.375.75Zm-.375 0h.008v.015h-.008V9.75Z"/>
  </symbol>
  <symbol id="outline-film" viewBox="0 0 24 24" fill="none" stroke="currentColor">
    <path stroke-linecap="round" stroke-linejoin="round" d="M3.375 19.5h17.25m-17.25 0a1.125 1.125 0 0 1-1.125-1.125M3.375 19.5h1.5C5.496 19.5 6 18.996 6 18.375m-3.75 0V5.625m0 12.75v-1.5c0-.621.504-1.125 1.125-1.125m18.375 2.625V5.625m0 12.75c0 .621-.504 1.125-1.125 1.125m1.125-1.125v-1.5c0-.621-.504-1.125-1.125-1.125m0 3.75h-1.5A1.125 1.125 0 0 1 18 18.375M20.625 4.5H3.375m17.25 0c.621 0 1.125.504 1.125 1.125M20.625 4.5h-1.5C18.504 4.5 18 5.004 18 5.625m3.75 0v1.5c0 .621-.504 1.125-1.125 1.125M3.375 4.5c-.621 0-1.125.504-1.125 1.125M3.375 4.5h1.5C5.496 4.5 6 5.004 6 5.625m-3.75 0v1.5c0 .621.504 1.125 1.125 1.125m0 0h1.5m-1.5 0c-.621 0-1.125.504-1.125 1.125v1.5c0 .621.504 1.125 1.125 1.125m1.5-3.75C5.496 8.25 6 7.746 6 7.125v-1.5M4.875 8.25C5.496 8.25 6 8.754 6 9.375v1.5m0-5.25v5.25m0-5.25C6 5.004 6.504 4.5 7.125 4.5h9.75c.621 0 1.125.504 1.125 1.125m1.125 2.625h1.5m-1.5 0A1.125 1.125 0 0 1 18 7.125v-1.5m1.125 2.625c-.621 0-1.125.504-1.125 1.125v1.5m2.625-2.625c.621 0 1.125.504 1.125 1.125v1.5c0 .621-.504 1.125-1.125 1.125M18 5.625v5.25M7.125 12h9.75m-9.75 0A1.125 1.125 0 0 1 6 10.875M7.125 12C6.504 12 6 12.504 6 13.125m0-2.25C6 11.496 5.496 12 4.875 12M18 10.875c0 .621-.504 1.125-1.125 1.125M18 10.875c0 .621.504 1.125 1.125 1.125m-2.25 0c.621 0 1.125.504 1.125 1.125m-12 5.25v-5.25m0 5.25c0 .621.504 1.125 1.125 1.125h9.75c.621 0 1.125-.504 1.125-1.125m-12 0v-1.5c0-.621-.504-1.125-1.125-1.125M18 18.375v-5.25m0 5.25v-1.5c0-.621.504-1.125 1.125-1.125M18 13.125v1.5c0 .621.504 1.125 1.125 1.125M18 13.125c0-.621.504-1.125 1.125-1.125M6 13.125v1.5c0 .621-.504 1.125-1.125 1.125M6 13.125C6 12.504 5.496 12 4.875 12m-1.5 0h1.5m-1.5 0c-.621 0-1.125.504-1.125 1.125v1.5c0 .621.504 1.125 1.125 1.125M19.125 12h1.5m0 0c.621 0 1.125.504 1.125 1.125v1.5c0 .621-.504 1.125-1.125 1.125m-17.25 0h1.5m14.25 0h1.5"/>
  </symbol>
  <symbol id="outline-folder" viewBox="0 0 24 24" fill="none" stroke="currentColor">
    <path stroke-linecap="round" stroke-linejoin="round" d="M2.25 12.75V12A2.25 2.25 0 0 1 4.5 9.75h15A2.25 2.25 0 0 1 21.75 12v.75m-8.69-6.44-2.12-2.12a1.5 1.5 0 0 0-1.061-.44H4.5A2.25 2.25 0 0 0 2.25 6v12a2.25 2.25 0 0 0 2.25 2.25h15A2.25 2.25 0 0 0 21.75 18V9a2.25 2.25 0 0 0-2.25-2.25h-5.379a1.5 1.5 0 0 1-1.06-.44Z"/>
  </symbol>
  <symbol id="outline-globe-alt" viewBox="0 0 24 24" fill="none" stroke="currentColor">
    <path stroke-linecap="round" stroke-linejoin="round" d="M12 21a9.004 9.004 0 0 0 8.716-6.747M12 21a9.004 9.004 0 0 1-8.716-6.747M12 21c2.485 0 4.5-4.03 4.5-9S14.485 3 12 3m0 18c-2.485 0-4.5-4.03-4.5-9S9.515 3 12 3m0 0a8.997 8.997 0 0 1 7.843 4.582M12 3a8.997 8.997 0 0 0-7.843 4.582m15.686 0A11.953 11.953 0 0 1 12 10.5c-2.998 0-5.74-1.1-7.843-2.918m15.686 0A8.959 8.959 0 0 1 21 12c0 .778-.099 1.533-.284 2.253m0 0A17.919 17.919 0 0 1 12 16.5c-3.162 0-6.133-.815-8.716-2.247m0 0A9.015 9.015 0 0 1 3 12c0-1.605.42-3.113 1.157-4.418"/>
  </symbol>
  <symbol id="outline-h1" viewBox="0 0 24 24" fill="none" stroke="currentColor">
    <path stroke-linecap="round" stroke-linejoin="round" d="M2.243 4.493v7.5m0 0v7.502m0-7.501h10.5m0-7.5v7.5m0 0v7.501m4.501-8.627 2.25-1.5v10.126m0 0h-2.25m2.25 0h2.25"/>
  </symbol>
  <symbol id="outline-hashtag" viewBox="0 0 24 24" fill="none" stroke="currentColor">
    <path stroke-linecap="round" stroke-linejoin="round" d="M5.25 8.25h15m-16.5 7.5h15m-1.8-13.5-3.9 19.5m-2.1-19.5-3.9 19.5"/>
  </symbol>
  <symbol id="outline-home" viewBox="0 0 24 24" fill="none" stroke="currentColor">
    <path stroke-linecap="round" stroke-linejoin="round" d="m2.25 12 8.954-8.955c.44-.439 1.152-.439 1.591 0L21.75 12M4.5 9.75v10.125c0 .621.504 1.125 1.125 1.125H9.75v-4.875c0-.621.504-1.125 1.125-1.125h2.25c.621 0 1.125.504 1.125 1.125V21h4.125c.621 0 1.125-.504 1.125-1.125V9.75M8.25 21h8.25"/>
  </symbol>
  <symbol id="outline-information-circle" viewBox="0 0 24 24" fill="none" stroke="currentColor">
    <path stroke-linecap="round" stroke-linejoin="round" d="m11.25 11.25.041-.02a.75.75 0 0 1 1.063.852l-.708 2.836a.75.75 0 0 0 1.063.853l.041-.021M21 12a9 9 0 1 1-18 0 9 9 0 0 1 18 0Zm-9-3.75h.008v.008H12V8.25Z"/>
  </symbol>
  <symbol id="outline-key" viewBox="0 0 24 24" fill="none" stroke="currentColor">
    <path stroke-linecap="round" stroke-linejoin="round" d="M15.75 5.25a3 3 0 0 1 3 3m3 0a6 6 0 0 1-7.029 5.912c-.563-.097-1.159.026-1.563.43L10.5 17.25H8.25v2.25H6v2.25H2.25v-2.818c0-.597.237-1.17.659-1.591l6.499-6.499c.404-.404.527-1 .43-1.563A6 6 0 1 1 21.75 8.25Z"/>
  </symbol>
  <symbol id="outline-language" viewBox="0 0 24 24" fill="none" stroke="currentColor">
    <path stroke-linecap="round" stroke-linejoin="round" d="m10.5 21 5.25-11.25L21 21m-9-3h7.5M3 5.621a48.474 48.474 0 0 1 6-.371m0 0c1.12 0 2.233.038 3.334.114M9 5.25V3m3.334 2.364C11.176 10.658 7.69 15.08 3 17.502m9.334-12.138c.896.061 1.785.147 2.666.257m-4.589 8.495a18.023 18.023 0 0 1-3.827-5.802"/>
  </symbol>
  <symbol id="outline-light-bulb" viewBox="0 0 24 24" fill="none" stroke="currentColor">
    <path stroke-linecap="round" stroke-linejoin="round" d="M12 18v-5.25m0 0a6.01 6.01 0 0 0 1.5-.189m-1.5.189a6.01 6.01 0 0 1-1.5-.189m3.75 7.478a12.06 12.06 0 0 1-4.5 0m3.75 2.383a14.406 14.406 0 0 1-3 0M14.25 18v-.192c0-.983.658-1.823 1.508-2.316a7.5 7.5 0 1 0-7.517 0c.85.493 1.509 1.333 1.509 2.316V18"/>
  </symbol>
  <symbol id="outline-link" viewBox="0 0 24 24" fill="none" stroke="currentColor">
    <path stroke-linecap="round" stroke-linejoin="round" d="M13.19 8.688a4.5 4.5 0 0 1 1.242 7.244l-4.5 4.5a4.5 4.5 0 0 1-6.364-6.364l1.757-1.757m13.35-.622 1.757-1.757a4.5 4.5 0 0 0-6.364-6.364l-4.5 4.5a4.5 4.5 0 0 0 1.242 7.244"/>
  </symbol>
  <symbol id="outline-list-bullet" viewBox="0 0 24 24" fill="none" stroke="currentColor">
    <path stroke-linecap="round" stroke-linejoin="round" d="M8.25 6.75h12M8.25 12h12m-12 5.25h12M3.75 6.75h.007v.008H3.75V6.75Zm.375 0a.375.375 0 1 1-.75 0 .375.375 0 0 1 .75 0ZM3.75 12h.007v.008H3.75V12Zm.375 0a.375.375 0 1 1-.75 0 .375.375 0 0 1 .75 0Zm-.375 5.25h.007v.008H3.75v-.008Zm.375 0a.375.375 0 1 1-.75 0 .375.375 0 0 1 .75 0Z"/>
  </symbol>
  <symbol id="outline-lock-closed" viewBox="0 0 24 24" fill="none" stroke="currentColor">
    <path stroke-linecap="round" stroke-linejoin="round" d="M16.5 10.5V6.75a4.5 4.5 0 1 0-9 0v3.75m-.75 11.25h10.5a2.25 2.25 0 0 0 2.25-2.25v-6.75a2.25 2.25 0 0 0-2.25-2.25H6.75a2.25 2.25 0 0 0-2.25 2.25v6.75a2.25 2.25 0 0 0 2.25 2.25Z"/>
  </symbol>
  <symbol id="outline-magnifying-glass" viewBox="0 0 24 24" fill="none" stroke="currentColor">
    <path stroke-linecap="round" stroke-linejoin="round" d="m21 21-5.197-5.197m0 0A7.5 7.5 0 1 0 5.196 5.196a7.5 7.5 0 0 0 10.607 10.607Z"/>
  </symbol>
  <symbol id="outline-map" viewBox="0 0 24 24" fill="none" stroke="currentColor">
    <path stroke-linecap="round" stroke-linejoin="round" d="M9 6.75V15m6-6v8.25m.503 3.498 4.875-2.437c.381-.19.622-.58.622-1.006V4.82c0-.836-.88-1.38-1.628-1.006l-3.869 1.934c-.317.159-.69.159-1.006 0L9.503 3.252a1.125 1.125 0 0 0-1.006 0L3.622 5.689C3.24 5.88 3 6.27 3 6.695V19.18c0 .836.88 1.38 1.628 1.006l3.869-1.934c.317-.159.69-.159 1.006 0l4.994 2.497c.317.158.69.158 1.006 0Z"/>
  </symbol>
  <symbol id="outline-megaphone" viewBox="0 0 24 24" fill="none" stroke="currentColor">
    <path stroke-linecap="round" stroke-linejoin="round" d="M10.34 15.84c-.688-.06-1.386-.09-2.09-.09H7.5a4.5 4.5 0 1 1 0-9h.75c.704 0 1.402-.03 2.09-.09m0 9.18c.253.962.584 1.892.985 2.783.247.55.06 1.21-.463 1.511l-.657.38c-.551.318-1.26.117-1.527-.461a20.845 20.845 0 0 1-1.44-4.282m3.102.069a18.03 18.03 0 0 1-.59-4.59c0-1.586.205-3.124.59-4.59m0 9.18a23.848 23.848 0 0 1 8.835 2.535M10.34 6.66a23.847 23.847 0 0 0 8.835-2.535m0 0A23.74 23.74 0 0 0 18.795 3m.38 1.125a23.91 23.91 0 0 1 1.014 5.395m-1.014 8.855c-.118.38-.245.754-.38 1.125m.38-1.125a23.91 23.91 0 0 0 1.014-5.395m0-3.46c.495.413.811 1.035.811 1.73 0 .695-.316 1.317-.811 1.73m0-3.46a24.347 24.347 0 0 1 0 3.46"/>
  </symbol>
  <symbol id="outline-minus" viewBox="0 0 24 24" fill="none" stroke="currentColor">
    <path stroke-linecap="round" stroke-linejoin="round" d="M5 12h14"/>
  </symbol>
  <symbol id="outline-musical-note" viewBox="0 0 24 24" fill="none" stroke="currentColor">
    <path stroke-linecap="round" stroke-linejoin="round" d="m9 9 10.5-3m0 6.553v3.75a2.25 2.25 0 0 1-1.632 2.163l-1.32.377a1.803 1.803 0 1 1-.99-3.467l2.31-.66a2.25 2.25 0 0 0 1.632-2.163Zm0 0V2.25L9 5.25v10.303m0 0v3.75a2.25 2.25 0 0 1-1.632 2.163l-1.32.377a1.803 1.803 0 0 1-.99-3.467l2.31-.66A2.25 2.25 0 0 0 9 15.553Z"/>
  </symbol>
  <symbol id="outline-numbered-list" viewBox="0 0 24 24" fill="none" stroke="currentColor">
    <path stroke-linecap="round" stroke-linejoin="round" d="M8.242 5.992h12m-12 6.003H20.24m-12 5.999h12M4.117 7.495v-3.75H2.99m1.125 3.75H2.99m1.125 0H5.24m-1.92 2.577a1.125 1.125 0 1 1 1.591 1.59l-1.83 1.83h2.16M2.99 15.745h1.125a1.125 1.125 0 0 1 0 2.25H3.74m0-.002h.375a1.125 1.125 0 0 1 0 2.25H2.99"/>
  </symbol>
  <symbol id="outline-paint-brush" viewBox="0 0 24 24" fill="none" stroke="currentColor">
    <path stroke-linecap="round" stroke-linejoin="round" d="M9.53 16.122a3 3 0 0 0-5.78 1.128 2.25 2.25 0 0 1-2.4 2.245 4.5 4.5 0 0 0 8.4-2.245c0-.399-.078-.78-.22-1.128Zm0 0a15.998 15.998 0 0 0 3.388-1.62m-5.043-.025a15.994 15.994 0 0 1 1.622-3.395m3.42 3.42a15.995 15.995 0 0 0 4.764-4.648l3.876-5.814a1.151 1.151 0 0 0-1.597-1.597L14.146 6.32a15.996 15.996 0 0 0-4.649 4.763m3.42 3.42a6.776 6.776 0 0 0-3.42-3.42"/>
  </symbol>
  <symbol id="outline-pencil-square" viewBox="0 0 24 24" fill="none" stroke="currentColor">
    <path stroke-linecap="round" stroke-linejoin="round" d="m16.862 4.487 1.687-1.688a1.875 1.875 0 1 1 2.652 2.652L10.582 16.07a4.5 4.5 0 0 1-1.897 1.13L6 18l.8-2.685a4.5 4.5 0 0 1 1.13-1.897l8.932-8.931Zm0 0L19.5 7.125M18 14v4.75A2.25 2.25 0 0 1 15.75 21H5.25A2.25 2.25 0 0 1 3 18.75V8.25A2.25 2.25 0 0 1 5.25 6H10"/>
  </symbol>
  <symbol id="outline-photo" viewBox="0 0 24 24" fill="none" stroke="currentColor">
    <path stroke-linecap="round" stroke-linejoin="round" d="m2.25 15.75 5.159-5.159a2.25 2.25 0 0 1 3.182 0l5.159 5.159m-1.5-1.5 1.409-1.409a2.25 2.25 0 0 1 3.182 0l2.909 2.909m-18 3.75h16.5a1.5 1.5 0 0 0 1.5-1.5V6a1.5 1.5 0 0 0-1.5-1.5H3.75A1.5 1.5 0 0 0 2.25 6v12a1.5 1.5 0 0 0 1.5 1.5Zm10.5-11.25h.008v.008h-.008V8.25Zm.375 0a.375.375 0 1 1-.75 0 .375.375 0 0 1 .75 0Z"/>
  </symbol>
  <symbol id="outline-play-circle" viewBox="0 0 24 24" fill="none" stroke="currentColor">
    <path stroke-linecap="round" stroke-linejoin="round" d="M21 12a9 9 0 1 1-18 0 9 9 0 0 1 18 0Z"/>
    <path stroke-linecap="round" stroke-linejoin="round" d="M15.91 11.672a.375.375 0 0 1 0 .656l-5.603 3.113a.375.375 0 0 1-.557-.328V8.887c0-.286.307-.466.557-.327l5.603 3.112Z"/>
  </symbol>
  <symbol id="outline-play" viewBox="0 0 24 24" fill="none" stroke="currentColor">
    <path stroke-linecap="round" stroke-linejoin="round" d="M5.25 5.653c0-.856.917-1.398 1.667-.986l11.54 6.347a1.125 1.125 0 0 1 0 1.972l-11.54 6.347a1.125 1.125 0 0 1-1.667-.986V5.653Z"/>
  </symbol>
  <symbol id="outline-plus-circle" viewBox="0 0 24 24" fill="none" stroke="currentColor">
    <path stroke-linecap="round" stroke-linejoin="round" d="M12 9v6m3-3H9m12 0a9 9 0 1 1-18 0 9 9 0 0 1 18 0Z"/>
  </symbol>
  <symbol id="outline-plus" viewBox="0 0 24 24" fill="none" stroke="currentColor">
    <path stroke-linecap="round" stroke-linejoin="round" d="M12 4.5v15m7.5-7.5h-15"/>
  </symbol>
  <symbol id="outline-qr-code" viewBox="0 0 24 24" fill="none" stroke="currentColor">
    <path stroke-linecap="round" stroke-linejoin="round" d="M3.75 4.875c0-.621.504-1.125 1.125-1.125h4.5c.621 0 1.125.504 1.125 1.125v4.5c0 .621-.504 1.125-1.125 1.125h-4.5A1.125 1.125 0 0 1 3.75 9.375v-4.5ZM3.75 14.625c0-.621.504-1.125 1.125-1.125h4.5c.621 0 1.125.504 1.125 1.125v4.5c0 .621-.504 1.125-1.125 1.125h-4.5a1.125 1.125 0 0 1-1.125-1.125v-4.5ZM13.5 4.875c0-.621.504-1.125 1.125-1.125h4.5c.621 0 1.125.504 1.125 1.125v4.5c0 .621-.504 1.125-1.125 1.125h-4.5A1.125 1.125 0 0 1 13.5 9.375v-4.5Z"/>
    <path stroke-linecap="round" stroke-linejoin="round" d="M6.75 6.75h.75v.75h-.75v-.75ZM6.75 16.5h.75v.75h-.75v-.75ZM16.5 6.75h.75v.75h-.75v-.75ZM13.5 13.5h.75v.75h-.75v-.75ZM13.5 19.5h.75v.75h-.75v-.75ZM19.5 13.5h.75v.75h-.75v-.75ZM19.5 19.5h.75v.75h-.75v-.75ZM16.5 16.5h.75v.75h-.75v-.75Z"/>
  </symbol>
  <symbol id="outline-question-mark-circle" viewBox="0 0 24 24" fill="none" stroke="currentColor">
    <path stroke-linecap="round" stroke-linejoin="round" d="M9.879 7.519c1.171-1.025 3.071-1.025 4.242 0 1.172 1.025 1.172 2.687 0 3.712-.203.179-.43.326-.67.442-.745.361-1.45.999-1.45 1.827v.75M21 12a9 9 0 1 1-18 0 9 9 0 0 1 18 0Zm-9 5.25h.008v.008H12v-.008Z"/>
  </symbol>
  <symbol id="outline-rectangle-stack" viewBox="0 0 24 24" fill="none" stroke="currentColor">
    <path stroke-linecap="round" stroke-linejoin="round" d="M6 6.878V6a2.25 2.25 0 0 1 2.25-2.25h7.5A2.25 2.25 0 0 1 18 6v.878m-12 0c.235-.083.487-.128.75-.128h10.5c.263 0 .515.045.75.128m-12 0A2.25 2.25 0 0 0 4.5 9v.878m13.5-3A2.25 2.25 0 0 1 19.5 9v.878m0 0a2.246 2.246 0 0 0-.75-.128H5.25c-.263 0-.515.045-.75.128m15 0A2.25 2.25 0 0 1 21 12v6a2.25 2.25 0 0 1-2.25 2.25H5.25A2.25 2.25 0 0 1 3 18v-6c0-.98.626-1.813 1.5-2.122"/>
  </symbol>
  <symbol id="outline-scale" viewBox="0 0 24 24" fill="none" stroke="currentColor">
    <path stroke-linecap="round" stroke-linejoin="round" d="M12 3v17.25m0 0c-1.472 0-2.882.265-4.185.75M12 20.25c1.472 0 2.882.265 4.185.75M18.75 4.97A48.416 48.416 0 0 0 12 4.5c-2.291 0-4.545.16-6.75.47m13.5 0c1.01.143 2.01.317 3 .52m-3-.52 2.62 10.726c.122.499-.106 1.028-.589 1.202a5.988 5.988 0 0 1-2.031.352 5.988 5.988 0 0 1-2.031-.352c-.483-.174-.711-.703-.59-1.202L18.75 4.971Zm-16.5.52c.99-.203 1.99-.377 3-.52m0 0 2.62 10.726c.122.499-.106 1.028-.589 1.202a5.989 5.989 0 0 1-2.031.352 5.989 5.989 0 0 1-2.031-.352c-.483-.174-.711-.703-.59-1.202L5.25 4.971Z"/>
  </symbol>
  <symbol id="outline-server" viewBox="0 0 24 24" fill="none" stroke="currentColor">
    <path stroke-linecap="round" stroke-linejoin="round" d="M21.75 17.25v-.228a4.5 4.5 0 0 0-.12-1.03l-2.268-9.64a3.375 3.375 0 0 0-3.285-2.602H7.923a3.375 3.375 0 0 0-3.285 2.602l-2.268 9.64a4.5 4.5 0 0 0-.12 1.03v.228m19.5 0a3 3 0 0 1-3 3H5.25a3 3 0 0 1-3-3m19.5 0a3 3 0 0 0-3-3H5.25a3 3 0 0 0-3 3m16.5 0h.008v.008h-.008v-.008Zm-3 0h.008v.008h-.008v-.008Z"/>
  </symbol>
  <symbol id="outline-share" viewBox="0 0 24 24" fill="none" stroke="currentColor">
    <path stroke-linecap="round" stroke-linejoin="round" d="M7.217 10.907a2.25 2.25 0 1 0 0 2.186m0-2.186c.18.324.283.696.283 1.093s-.103.77-.283 1.093m0-2.186 9.566-5.314m-9.566 7.5 9.566 5.314m0 0a2.25 2.25 0 1 0 3.935 2.186 2.25 2.25 0 0 0-3.935-2.186Zm0-12.814a2.25 2.25 0 1 0 3.933-2.185 2.25 2.25 0 0 0-3.933 2.185Z"/>
  </symbol>
  <symbol id="outline-shield-check" viewBox="0 0 24 24" fill="none" stroke="currentColor">
    <path stroke-linecap="round" stroke-linejoin="round" d="M9 12.75 11.25 15 15 9.75m-3-7.036A11.959 11.959 0 0 1 3.598 6 11.99 11.99 0 0 0 3 9.749c0 5.592 3.824 10.29 9 11.623 5.176-1.332 9-6.03 9-11.622 0-1.31-.21-2.571-.598-3.751h-.152c-3.196 0-6.1-1.248-8.25-3.285Z"/>
  </symbol>
  <symbol id="outline-sparkles" viewBox="0 0 24 24" fill="none" stroke="currentColor">
    <path stroke-linecap="round" stroke-linejoin="round" d="M9.813 15.904 9 18.75l-.813-2.846a4.5 4.5 0 0 0-3.09-3.09L2.25 12l2.846-.813a4.5 4.5 0 0 0 3.09-3.09L9 5.25l.813 2.846a4.5 4.5 0 0 0 3.09 3.09L15.75 12l-2.846.813a4.5 4.5 0 0 0-3.09 3.09ZM18.259 8.715 18 9.75l-.259-1.035a3.375 3.375 0 0 0-2.455-2.456L14.25 6l1.036-.259a3.375 3.375 0 0 0 2.455-2.456L18 2.25l.259 1.035a3.375 3.375 0 0 0 2.456 2.456L21.75 6l-1.035.259a3.375 3.375 0 0 0-2.456 2.456ZM16.894 20.567 16.5 21.75l-.394-1.183a2.25 2.25 0 0 0-1.423-1.423L13.5 18.75l1.183-.394a2.25 2.25 0 0 0 1.423-1.423l.394-1.183.394 1.183a2.25 2.25 0 0 0 1.423 1.423l1.183.394-1.183.394a2.25 2.25 0 0 0-1.423 1.423Z"/>
  </symbol>
  <symbol id="outline-squares-2x2" viewBox="0 0 24 24" fill="none" stroke="currentColor">
    <path stroke-linecap="round" stroke-linejoin="round" d="M3.75 6A2.25 2.25 0 0 1 6 3.75h2.25A2.25 2.25 0 0 1 10.5 6v2.25a2.25 2.25 0 0 1-2.25 2.25H6a2.25 2.25 0 0 1-2.25-2.25V6ZM3.75 15.75A2.25 2.25 0 0 1 6 13.5h2.25a2.25 2.25 0 0 1 2.25 2.25V18a2.25 2.25 0 0 1-2.25 2.25H6A2.25 2.25 0 0 1 3.75 18v-2.25ZM13.5 6a2.25 2.25 0 0 1 2.25-2.25H18A2.25 2.25 0 0 1 20.25 6v2.25A2.25 2.25 0 0 1 18 10.5h-2.25a2.25 2.25 0 0 1-2.25-2.25V6ZM13.5 15.75a2.25 2.25 0 0 1 2.25-2.25H18a2.25 2.25 0 0 1 2.25 2.25V18A2.25 2.25 0 0 1 18 20.25h-2.25A2.25 2.25 0 0 1 13.5 18v-2.25Z"/>
  </symbol>
  <symbol id="outline-squares-plus" viewBox="0 0 24 24" fill="none" stroke="currentColor">
    <path stroke-linecap="round" stroke-linejoin="round" d="M13.5 16.875h3.375m0 0h3.375m-3.375 0V13.5m0 3.375v3.375M6 10.5h2.25a2.25 2.25 0 0 0 2.25-2.25V6a2.25 2.25 0 0 0-2.25-2.25H6A2.25 2.25 0 0 0 3.75 6v2.25A2.25 2.25 0 0 0 6 10.5Zm0 9.75h2.25A2.25 2.25 0 0 0 10.5 18v-2.25a2.25 2.25 0 0 0-2.25-2.25H6a2.25 2.25 0 0 0-2.25 2.25V18A2.25 2.25 0 0 0 6 20.25Zm9.75-9.75H18a2.25 2.25 0 0 0 2.25-2.25V6A2.25 2.25 0 0 0 18 3.75h-2.25A2.25 2.25 0 0 0 13.5 6v2.25a2.25 2.25 0 0 0 2.25 2.25Z"/>
  </symbol>
  <symbol id="outline-star" viewBox="0 0 24 24" fill="none" stroke="currentColor">
    <path stroke-linecap="round" stroke-linejoin="round" d="M11.48 3.499a.562.562 0 0 1 1.04 0l2.125 5.111a.563.563 0 0 0 .475.345l5.518.442c.499.04.701.663.321.988l-4.204 3.602a.563.563 0 0 0-.182.557l1.285 5.385a.562.562 0 0 1-.84.61l-4.725-2.885a.562.562 0 0 0-.586 0L6.982 20.54a.562.562 0 0 1-.84-.61l1.285-5.386a.562.562 0 0 0-.182-.557l-4.204-3.602a.562.562 0 0 1 .321-.988l5.518-.442a.563.563 0 0 0 .475-.345L11.48 3.5Z"/>
  </symbol>
  <symbol id="outline-stop" viewBox="0 0 24 24" fill="none" stroke="currentColor">
    <path stroke-linecap="round" stroke-linejoin="round" d="M5.25 7.5A2.25 2.25 0 0 1 7.5 5.25h9a2.25 2.25 0 0 1 2.25 2.25v9a2.25 2.25 0 0 1-2.25 2.25h-9a2.25 2.25 0 0 1-2.25-2.25v-9Z"/>
  </symbol>
  <symbol id="outline-swatch" viewBox="0 0 24 24" fill="none" stroke="currentColor">
    <path stroke-linecap="round" stroke-linejoin="round" d="M4.098 19.902a3.75 3.75 0 0 0 5.304 0l6.401-6.402M6.75 21A3.75 3.75 0 0 1 3 17.25V4.125C3 3.504 3.504 3 4.125 3h5.25c.621 0 1.125.504 1.125 1.125v4.072M6.75 21a3.75 3.75 0 0 0 3.75-3.75V8.197M6.75 21h13.125c.621 0 1.125-.504 1.125-1.125v-5.25c0-.621-.504-1.125-1.125-1.125h-4.072M10.5 8.197l2.88-2.88c.438-.439 1.15-.439 1.59 0l3.712 3.713c.44.44.44 1.152 0 1.59l-2.879 2.88M6.75 17.25h.008v.008H6.75v-.008Z"/>
  </symbol>
  <symbol id="outline-table-cells" viewBox="0 0 24 24" fill="none" stroke="currentColor">
    <path stroke-linecap="round" stroke-linejoin="round" d="M3.375 19.5h17.25m-17.25 0a1.125 1.125 0 0 1-1.125-1.125M3.375 19.5h7.5c.621 0 1.125-.504 1.125-1.125m-9.75 0V5.625m0 12.75v-1.5c0-.621.504-1.125 1.125-1.125m18.375 2.625V5.625m0 12.75c0 .621-.504 1.125-1.125 1.125m1.125-1.125v-1.5c0-.621-.504-1.125-1.125-1.125m0 3.75h-7.5A1.125 1.125 0 0 1 12 18.375m9.75-12.75c0-.621-.504-1.125-1.125-1.125H3.375c-.621 0-1.125.504-1.125 1.125m19.5 0v1.5c0 .621-.504 1.125-1.125 1.125M2.25 5.625v1.5c0 .621.504 1.125 1.125 1.125m0 0h17.25m-17.25 0h7.5c.621 0 1.125.504 1.125 1.125M3.375 8.25c-.621 0-1.125.504-1.125 1.125v1.5c0 .621.504 1.125 1.125 1.125m17.25-3.75h-7.5c-.621 0-1.125.504-1.125 1.125m8.625-1.125c.621 0 1.125.504 1.125 1.125v1.5c0 .621-.504 1.125-1.125 1.125m-17.25 0h7.5m-7.5 0c-.621 0-1.125.504-1.125 1.125v1.5c0 .621.504 1.125 1.125 1.125M12 10.875v-1.5m0 1.5c0 .621-.504 1.125-1.125 1.125M12 10.875c0 .621.504 1.125 1.125 1.125m-2.25 0c.621 0 1.125.504 1.125 1.125M13.125 12h7.5m-7.5 0c-.621 0-1.125.504-1.125 1.125M20.625 12c.621 0 1.125.504 1.125 1.125v1.5c0 .621-.504 1.125-1.125 1.125m-17.25 0h7.5M12 14.625v-1.5m0 1.5c0 .621-.504 1.125-1.125 1.125M12 14.625c0 .621.504 1.125 1.125 1.125m-2.25 0c.621 0 1.125.504 1.125 1.125m0 1.5v-1.5m0 0c0-.621.504-1.125 1.125-1.125m0 0h7.5"/>
  </symbol>
  <symbol id="outline-tag" viewBox="0 0 24 24" fill="none" stroke="currentColor">
    <path stroke-linecap="round" stroke-linejoin="round" d="M9.568 3H5.25A2.25 2.25 0 0 0 3 5.25v4.318c0 .597.237 1.17.659 1.591l9.581 9.581c.699.699 1.78.872 2.607.33a18.095 18.095 0 0 0 5.223-5.223c.542-.827.369-1.908-.33-2.607L11.16 3.66A2.25 2.25 0 0 0 9.568 3Z"/>
    <path stroke-linecap="round" stroke-linejoin="round" d="M6 6h.008v.008H6V6Z"/>
  </symbol>
  <symbol id="outline-trash" viewBox="0 0 24 24" fill="none" stroke="currentColor">
    <path stroke-linecap="round" stroke-linejoin="round" d="m14.74 9-.346 9m-4.788 0L9.26 9m9.968-3.21c.342.052.682.107 1.022.166m-1.022-.165L18.16 19.673a2.25 2.25 0 0 1-2.244 2.077H8.084a2.25 2.25 0 0 1-2.244-2.077L4.772 5.79m14.456 0a48.108 48.108 0 0 0-3.478-.397m-12 .562c.34-.059.68-.114 1.022-.165m0 0a48.11 48.11 0 0 1 3.478-.397m7.5 0v-.916c0-1.18-.91-2.164-2.09-2.201a51.964 51.964 0 0 0-3.32 0c-1.18.037-2.09 1.022-2.09 2.201v.916m7.5 0a48.667 48.667 0 0 0-7.5 0"/>
  </symbol>
  <symbol id="outline-tv" viewBox="0 0 24 24" fill="none" stroke="currentColor">
    <path stroke-linecap="round" stroke-linejoin="round" d="M6 20.25h12m-7.5-3v3m3-3v3m-10.125-3h17.25c.621 0 1.125-.504 1.125-1.125V4.875c0-.621-.504-1.125-1.125-1.125H3.375c-.621 0-1.125.504-1.125 1.125v11.25c0 .621.504 1.125 1.125 1.125Z"/>
  </symbol>
  <symbol id="outline-user-circle" viewBox="0 0 24 24" fill="none" stroke="currentColor">
    <path stroke-linecap="round" stroke-linejoin="round" d="M17.982 18.725A7.488 7.488 0 0 0 12 15.75a7.488 7.488 0 0 0-5.982 2.975m11.963 0a9 9 0 1 0-11.963 0m11.963 0A8.966 8.966 0 0 1 12 21a8.966 8.966 0 0 1-5.982-2.275M15 9.75a3 3 0 1 1-6 0 3 3 0 0 1 6 0Z"/>
  </symbol>
  <symbol id="outline-user-plus" viewBox="0 0 24 24" fill="none" stroke="currentColor">
    <path stroke-linecap="round" stroke-linejoin="round" d="M18 7.5v3m0 0v3m0-3h3m-3 0h-3m-2.25-4.125a3.375 3.375 0 1 1-6.75 0 3.375 3.375 0 0 1 6.75 0ZM3 19.235v-.11a6.375 6.375 0 0 1 12.75 0v.109A12.318 12.318 0 0 1 9.374 21c-2.331 0-4.512-.645-6.374-1.766Z"/>
  </symbol>
  <symbol id="outline-users" viewBox="0 0 24 24" fill="none" stroke="currentColor">
    <path stroke-linecap="round" stroke-linejoin="round" d="M15 19.128a9.38 9.38 0 0 0 2.625.372 9.337 9.337 0 0 0 4.121-.952 4.125 4.125 0 0 0-7.533-2.493M15 19.128v-.003c0-1.113-.285-2.16-.786-3.07M15 19.128v.106A12.318 12.318 0 0 1 8.624 21c-2.331 0-4.512-.645-6.374-1.766l-.001-.109a6.375 6.375 0 0 1 11.964-3.07M12 6.375a3.375 3.375 0 1 1-6.75 0 3.375 3.375 0 0 1 6.75 0Zm8.25 2.25a2.625 2.625 0 1 1-5.25 0 2.625 2.625 0 0 1 5.25 0Z"/>
  </symbol>
  <symbol id="outline-view-columns" viewBox="0 0 24 24" fill="none" stroke="currentColor">
    <path stroke-linecap="round" stroke-linejoin="round" d="M9 4.5v15m6-15v15m-10.875 0h15.75c.621 0 1.125-.504 1.125-1.125V5.625c0-.621-.504-1.125-1.125-1.125H4.125C3.504 4.5 3 5.004 3 5.625v12.75c0 .621.504 1.125 1.125 1.125Z"/>
  </symbol>
  <symbol id="outline-wrench-screwdriver" viewBox="0 0 24 24" fill="none" stroke="currentColor">
    <path stroke-linecap="round" stroke-linejoin="round" d="M11.42 15.17 17.25 21A2.652 2.652 0 0 0 21 17.25l-5.877-5.877M11.42 15.17l2.496-3.03c.317-.384.74-.626 1.208-.766M11.42 15.17l-4.655 5.653a2.548 2.548 0 1 1-3.586-3.586l6.837-5.63m5.108-.233c.55-.164 1.163-.188 1.743-.14a4.5 4.5 0 0 0 4.486-6.336l-3.276 3.277a3.004 3.004 0 0 1-2.25-2.25l3.276-3.276a4.5 4.5 0 0 0-6.336 4.486c.091 1.076-.071 2.264-.904 2.95l-.102.085m-1.745 1.437L5.909 7.5H4.5L2.25 3.75l1.5-1.5L7.5 4.5v1.409l4.26 4.26m-1.745 1.437 1.745-1.437m6.615 8.206L15.75 15.75M4.867 19.125h.008v.008h-.008v-.008Z"/>
  </symbol>
  <symbol id="outline-wrench" viewBox="0 0 24 24" fill="none" stroke="currentColor">
    <path stroke-linecap="round" stroke-linejoin="round" d="M21.75 6.75a4.5 4.5 0 0 1-4.884 4.484c-1.076-.091-2.264.071-2.95.904l-7.152 8.684a2.548 2.548 0 1 1-3.586-3.586l8.684-7.152c.833-.686.995-1.874.904-2.95a4.5 4.5 0 0 1 6.336-4.486l-3.276 3.276a3.004 3.004 0 0 0 2.25 2.25l3.276-3.276c.256.565.398 1.192.398 1.852Z"/>
    <path stroke-linecap="round" stroke-linejoin="round" d="M4.867 19.125h.008v.008h-.008v-.008Z"/>
  </symbol>
  <symbol id="outline-x-circle" viewBox="0 0 24 24" fill="none" stroke="currentColor">
    <path stroke-linecap="round" stroke-linejoin="round" d="m9.75 9.75 4.5 4.5m0-4.5-4.5 4.5M21 12a9 9 0 1 1-18 0 9 9 0 0 1 18 0Z"/>
  </symbol>
  <symbol id="outline-x-mark" viewBox="0 0 24 24" fill="none" stroke="currentColor">
    <path stroke-linecap="round" stroke-linejoin="round" d="M6 18 18 6M6 6l12 12"/>
  </symbol>
  <!-- twitter -->
  <symbol id="icon-twitter-x" viewBox="0 0 24 24" fill="currentColor">
    <path d="M18.244 2.25h3.308l-7.227 8.26 8.502 11.24H16.17l-5.214-6.817L4.99 21.75H1.68l7.73-8.835L1.254 2.25H8.08l4.713 6.231zm-1.161 17.52h1.833L7.084 4.126H5.117z"/>
  </symbol>
  <!-- facebook -->
  <symbol id="icon-facebook" viewBox="0 0 24 24" fill="currentColor">
    <path d="M14 13.5h2.5l1-4H14v-2c0-1.03 0-2 2-2h1.5V2.14c-.326-.043-1.557-.14-2.857-.14C11.928 2 10 3.657 10 6.7v2.8H7v4h3V22h4v-8.5z"/>
  </symbol>
  <!-- line -->
  <symbol id="icon-line" viewBox="0 0 135 135" fill="currentColor">
    <circle cx="67.5" cy="67.5" fill="#00b900" r="67.5"/>
    <path d="m113.28 64.01c0-20.58-20.64-37.33-46-37.33s-46 16.75-46 37.33c0 18.45 16.36 33.91 38.47 36.83 1.5.32 3.54.99 4.05 2.27.46 1.16.3 2.98.15 4.16 0 0-.54 3.25-.66 3.94-.2 1.16-.92 4.55 3.98 2.48 4.91-2.07 26.49-15.6 36.14-26.71 6.67-7.31 9.86-14.73 9.86-22.97" fill="#fff"/>
    <g fill="#00b900">
      <path d="m57.93 54.06h-3.23c-.49 0-.9.4-.9.89v20.04c0 .49.4.89.9.89h3.23c.49 0 .9-.4.9-.89v-20.04c0-.49-.4-.89-.9-.89"/>
      <path d="m80.14 54.06h-3.23c-.5 0-.9.4-.9.89v11.91l-9.19-12.4s-.05-.06-.07-.09-.04-.04-.05-.06c0 0-.01-.01-.02-.02-.02-.01-.03-.03-.05-.04 0 0-.02-.01-.02-.02-.02-.01-.03-.02-.05-.03 0 0-.02-.01-.03-.02-.02 0-.03-.02-.05-.03 0 0-.02 0-.03-.01-.02 0-.03-.02-.05-.02-.01 0-.02 0-.03-.01-.02 0-.03-.01-.05-.02-.01 0-.02 0-.03 0-.02 0-.03 0-.05-.01-.01 0-.03 0-.04 0-.02 0-.03 0-.05 0s-.03 0-.05 0c-.01 0-.02 0-.03 0h-3.23c-.49 0-.9.4-.9.89v20.04c0 .49.4.89.9.89h3.23c.5 0 .9-.4.9-.89v-11.9l9.2 12.42c.06.09.14.16.23.22l.06.03s.02 0 .03.01c.01 0 .03.01.04.02.01 0 .03.01.04.02 0 0 .02 0 .03.01.02 0 .04.01.06.02h.01c.07.02.15.03.23.03h3.23c.5 0 .9-.4.9-.89v-20.04c0-.49-.4-.89-.9-.89"/>
      <path d="m50.16 70.88h-8.77v-15.92c0-.49-.4-.9-.9-.9h-3.23c-.49 0-.9.4-.9.9v20.04c0 .24.1.46.25.62 0 0 0 0 .01.01 0 0 0 0 .01.01.16.15.38.25.62.25h12.89c.49 0 .89-.4.89-.9v-3.23c0-.49-.4-.9-.89-.9"/>
      <path d="m97.96 59.08c.49 0 .89-.4.89-.9v-3.23c0-.5-.4-.9-.89-.9h-12.89c-.24 0-.46.1-.62.25 0 0 0 0-.01 0 0 0-.01.01-.01.02-.15.16-.25.38-.25.62v20.04c0 .24.1.46.25.62 0 0 0 0 .01.01 0 0 0 0 .01.01.16.15.38.25.62.25h12.89c.49 0 .89-.4.89-.9v-3.23c0-.49-.4-.9-.89-.9h-8.77v-3.39h8.77c.49 0 .89-.4.89-.9v-3.23c0-.5-.4-.9-.89-.9h-8.77v-3.39h8.77z"/>
    </g>
  </symbol>
  <!-- instagram -->
  <symbol id="icon-instagram" viewBox="0 0 24 24" fill="currentColor">
    <path d="M12 0C8.74 0 8.333.015 7.053.072 5.775.132 4.905.333 4.14.63c-.789.306-1.459.717-2.126 1.384S.935 3.35.63 4.14C.333 4.905.131 5.775.072 7.053.012 8.333 0 8.74 0 12s.015 3.667.072 4.947c.06 1.277.261 2.148.558 2.913.306.788.717 1.459 1.384 2.126.667.666 1.336 1.079 2.126 1.384.766.296 1.636.499 2.913.558C8.333 23.988 8.74 24 12 24s3.667-.015 4.947-.072c1.277-.06 2.148-.262 2.913-.558.788-.306 1.459-.718 2.126-1.384.666-.667 1.079-1.335 1.384-2.126.296-.765.499-1.636.558-2.913.06-1.28.072-1.687.072-4.947s-.015-3.667-.072-4.947c-.06-1.277-.262-2.149-.558-2.913-.306-.789-.718-1.459-1.384-2.126C21.319 1.347 20.651.935 19.86.63c-.765-.297-1.636-.499-2.913-.558C15.667.012 15.26 0 12 0zm0 2.16c3.203 0 3.585.016 4.85.071 1.17.055 1.805.249 2.227.415.562.217.96.477 1.382.896.419.42.679.819.896 1.381.164.422.36 1.057.413 2.227.057 1.266.07 1.646.07 4.85s-.015 3.585-.074 4.85c-.061 1.17-.256 1.805-.421 2.227-.224.562-.479.96-.899 1.382-.419.419-.824.679-1.38.896-.42.164-1.065.36-2.235.413-1.274.057-1.649.07-4.859.07-3.211 0-3.586-.015-4.859-.074-1.171-.061-1.816-.256-2.236-.421-.569-.224-.96-.479-1.379-.899-.421-.419-.69-.824-.9-1.38-.165-.42-.359-1.065-.42-2.235-.045-1.26-.061-1.649-.061-4.844 0-3.196.016-3.586.061-4.861.061-1.17.255-1.814.42-2.234.21-.57.479-.96.9-1.381.419-.419.81-.689 1.379-.898.42-.166 1.051-.361 2.221-.421 1.275-.045 1.65-.06 4.859-.06l.045.03zm0 3.678c-3.405 0-6.162 2.76-6.162 6.162 0 3.405 2.76 6.162 6.162 6.162 3.405 0 6.162-2.76 6.162-6.162 0-3.405-2.76-6.162-6.162-6.162zM12 16c-2.21 0-4-1.79-4-4s1.79-4 4-4 4 1.79 4 4-1.79 4-4 4zm7.846-10.405c0 .795-.646 1.44-1.44 1.44-.795 0-1.44-.646-1.44-1.44 0-.794.646-1.439 1.44-1.439.793-.001 1.44.645 1.44 1.439z"/>
  </symbol>
  <!-- discord -->
  <symbol id="icon-discord" viewBox="0 0 24 24" fill="currentColor">
    <path d="M20.317 4.37a19.791 19.791 0 0 0-4.885-1.515.074.074 0 0 0-.079.037c-.21.375-.444.864-.608 1.25-1.844-.277-3.68-.277-5.486 0-.164-.393-.406-.874-.617-1.25a.077.077 0 0 0-.079-.037A19.736 19.736 0 0 0 3.677 4.37a.07.07 0 0 0-.032.027C.533 9.046-.32 13.58.099 18.057a.082.082 0 0 0 .031.057c2.053 1.508 4.042 2.423 5.993 3.03a.078.078 0 0 0 .084-.028c.462-.63.874-1.295 1.226-1.994a.076.076 0 0 0-.041-.106c-.653-.248-1.275-.55-1.873-.892a.077.077 0 0 1-.007-.128 10.913 10.913 0 0 1 .372-.291.074.074 0 0 1 .077-.01c3.928 1.793 8.18 1.793 12.062 0a.074.074 0 0 1 .078.01c.12.098.246.198.373.292a.077.077 0 0 1-.006.127c-.599.343-1.22.644-1.873.892a.077.077 0 0 0-.041.107c.36.698.772 1.362 1.225 1.993a.076.076 0 0 0 .084.028c1.962-.607 3.95-1.522 6.003-3.03a.077.077 0 0 0 .031-.055c.5-5.177-.838-9.674-3.549-13.66a.061.061 0 0 0-.031-.03zM8.02 15.33c-1.183 0-2.157-1.085-2.157-2.419 0-1.333.956-2.419 2.157-2.419 1.21 0 2.176 1.095 2.157 2.419 0 1.333-.946 2.419-2.157 2.419zm7.975 0c-1.183 0-2.157-1.085-2.157-2.419 0-1.333.955-2.419 2.157-2.419 1.21 0 2.176 1.095 2.157 2.419 0 1.333-.946 2.419-2.157 2.419z"/>
  </symbol>
  <!-- YouTube -->
  <!-- TikTok -->
  <symbol id="icon-tiktok" viewBox="0 0 352.28 398.67" fill="currentColor">
    <path d="M137.17 156.98v-15.56c-5.34-.73-10.76-1.18-16.29-1.18C54.23 140.24 0 194.47 0 261.13c0 40.9 20.43 77.09 51.61 98.97-20.12-21.6-32.46-50.53-32.46-82.31 0-65.7 52.69-119.28 118.03-120.81Z"/>
    <path d="M140.02 333c29.74 0 54-23.66 55.1-53.13l.11-263.2h48.08c-1-5.41-1.55-10.97-1.55-16.67h-65.67l-.11 263.2c-1.1 29.47-25.36 53.13-55.1 53.13-9.24 0-17.95-2.31-25.61-6.34C105.3 323.9 121.6 333 140.02 333ZM333.13 106V91.37c-18.34 0-35.43-5.45-49.76-14.8 12.76 14.65 30.09 25.22 49.76 29.43Z"/>
    <path d="M283.38 76.57c-13.98-16.05-22.47-37-22.47-59.91h-17.59c4.63 25.02 19.48 46.49 40.06 59.91ZM120.88 205.92c-30.44 0-55.21 24.77-55.21 55.21 0 21.2 12.03 39.62 29.6 48.86-6.55-9.08-10.45-20.18-10.45-32.2 0-30.44 24.77-55.21 55.21-55.21 5.68 0 11.13.94 16.29 2.55v-67.05c-5.34-.73-10.76-1.18-16.29-1.18-.96 0-1.9.05-2.85.07v51.49c-5.16-1.61-10.61-2.55-16.29-2.55Z"/>
    <path d="M333.13 106v51.04c-34.05 0-65.61-10.89-91.37-29.38v133.47c0 66.66-54.23 120.88-120.88 120.88-25.76 0-49.64-8.12-69.28-21.91 22.08 23.71 53.54 38.57 88.42 38.57 66.66 0 120.88-54.23 120.88-120.88V144.33c25.76 18.49 57.32 29.38 91.37 29.38v-65.68c-6.57 0-12.97-.71-19.14-2.03Z"/>
    <path d="M241.76 261.13V127.66c25.76 18.49 57.32 29.38 91.37 29.38V106c-19.67-4.21-37-14.77-49.76-29.43-20.58-13.42-35.43-34.88-40.06-59.91h-48.08l-.11 263.2c-1.1 29.47-25.36 53.13-55.1 53.13-18.42 0-34.72-9.1-44.75-23.01-17.57-9.25-29.6-27.67-29.6-48.86 0-30.44 24.77-55.21 55.21-55.21 5.68 0 11.13.94 16.29 2.55v-51.49C71.83 158.5 19.14 212.08 19.14 277.78c0 31.78 12.34 60.71 32.46 82.31C71.23 373.87 95.12 382 120.88 382c66.65 0 120.88-54.23 120.88-120.88Z"/>
  </symbol>
  <!-- Pinterest -->
  <symbol id="icon-pinterest" viewBox="0 0 24 24" fill="currentColor">
    <path d="M12.017 0C5.396 0 .029 5.367.029 11.987c0 5.079 3.158 9.417 7.618 11.162-.105-.949-.199-2.403.041-3.439.219-.937 1.406-5.957 1.406-5.957s-.359-.72-.359-1.781c0-1.663.967-2.911 2.168-2.911 1.024 0 1.518.769 1.518 1.688 0 1.029-.653 2.567-.992 3.992-.285 1.193.6 2.165 1.775 2.165 2.128 0 3.768-2.245 3.768-5.487 0-2.861-2.063-4.869-5.008-4.869-3.41 0-5.409 2.562-5.409 5.199 0 1.033.394 2.143.889 2.741.099.12.112.225.085.345-.09.375-.293 1.199-.334 1.363-.053.225-.172.271-.401.165-1.495-.69-2.433-2.878-2.433-4.646 0-3.776 2.748-7.252 7.951-7.252 4.188 0 7.429 2.986 7.429 6.969 0 4.166-2.632 7.525-6.289 7.525-1.226 0-2.375-.638-2.769-1.385l-.754 2.872c-.273 1.045-1.018 2.351-1.517 3.149 1.144.353 2.348.543 3.593.543 6.621 0 11.988-5.367 11.988-11.987C24 5.367 18.638 0 12.017 0z"/>
  </symbol>
  <!-- LinkedIn -->
  <symbol id="icon-linkedin" viewBox="0 0 24 24" fill="currentColor">
    <path d="M20.447 20.452h-3.554v-5.569c0-1.328-.027-3.037-1.852-3.037-1.853 0-2.136 1.445-2.136 2.939v5.667H9.351V9h3.414v1.561h.046c.477-.9 1.637-1.85 3.37-1.85 3.601 0 4.267 2.37 4.267 5.455v6.286zM5.337 7.433c-1.144 0-2.063-.926-2.063-2.065 0-1.138.92-2.063 2.063-2.063 1.14 0 2.064.925 2.064 2.063 0 1.139-.925 2.065-2.064 2.065zm1.782 13.019H3.555V9h3.564v11.452zM22.225 0H1.771C.792 0 0 .774 0 1.729v20.542C0 23.227.792 24 1.771 24h20.451C23.2 24 24 23.227 24 22.271V1.729C24 .774 23.2 0 22.222 0h.003z"/>
  </symbol>
  <!-- GitHub -->
  <symbol id="icon-github" viewBox="0 0 24 24" fill="currentColor">
    <path d="M12 .297c-6.63 0-12 5.373-12 12 0 5.303 3.438 9.8 8.205 11.385.6.113.82-.258.82-.577 0-.285-.01-1.04-.015-2.04-3.338.724-4.042-1.61-4.042-1.61C4.422 18.07 3.633 17.7 3.633 17.7c-1.087-.744.084-.729.084-.729 1.205.084 1.838 1.236 1.838 1.236 1.07 1.835 2.809 1.305 3.495.998.108-.776.417-1.305.76-1.605-2.665-.3-5.466-1.332-5.466-5.93 0-1.31.465-2.38 1.235-3.22-.135-.303-.54-1.523.105-3.176 0 0 1.005-.322 3.3 1.23.96-.267 1.98-.399 3-.405 1.02.006 2.04.138 3 .405 2.28-1.552 3.285-1.23 3.285-1.23.645 1.653.24 2.873.12 3.176.765.84 1.23 1.91 1.23 3.22 0 4.61-2.805 5.625-5.475 5.92.42.36.81 1.096.81 2.22 0 1.606-.015 2.896-.015 3.286 0 .315.21.69.825.57C20.565 22.092 24 17.592 24 12.297c0-6.627-5.373-12-12-12"/>
  </symbol>
  <!-- Threads -->
  <symbol id="icon-threads" viewBox="0 0 878 1000" fill="currentColor">
    <path d="M446.7,1000h-0.3c-149.2-1-263.9-50.2-341-146.2C36.9,768.3,1.5,649.4,0.3,500.4v-0.7       c1.2-149.1,36.6-267.9,105.2-353.4C182.5,50.2,297.3,1,446.4,0h0.3h0.3c114.4,0.8,210.1,30.2,284.4,87.4       c69.9,53.8,119.1,130.4,146.2,227.8l-85,23.7c-46-165-162.4-249.3-346-250.6c-121.2,0.9-212.9,39-272.5,113.2       C118.4,271,89.6,371.4,88.5,500c1.1,128.6,29.9,229,85.7,298.5c59.6,74.3,151.3,112.4,272.5,113.2c109.3-0.8,181.6-26.3,241.7-85.2       c68.6-67.2,67.4-149.7,45.4-199.9c-12.9-29.6-36.4-54.2-68.1-72.9c-8,56.3-25.9,101.9-53.5,136.3c-36.9,45.9-89.2,71-155.4,74.6       c-50.1,2.7-98.4-9.1-135.8-33.4c-44.3-28.7-70.2-72.5-73-123.5c-2.7-49.6,17-95.2,55.4-128.4c36.7-31.7,88.3-50.3,149.3-53.8       c44.9-2.5,87-0.5,125.8,5.9c-5.2-30.9-15.6-55.5-31.2-73.2c-21.4-24.4-54.5-36.8-98.3-37.1c-0.4,0-0.8,0-1.2,0       c-35.2,0-83,9.7-113.4,55L261.2,327c40.8-60.6,107-94,186.6-94c0.6,0,1.2,0,1.8,0c133.1,0.8,212.4,82.3,220.3,224.5       c4.5,1.9,9,3.9,13.4,5.9c62.1,29.2,107.5,73.4,131.4,127.9c33.2,75.9,36.3,199.6-64.5,298.3C673.1,965,579.6,999.1,447,1000       L446.7,1000L446.7,1000z M488.5,512.9c-10.1,0-20.3,0.3-30.8,0.9c-76.5,4.3-124.2,39.4-121.5,89.3c2.8,52.3,60.5,76.6,116,73.6       c51-2.7,117.4-22.6,128.6-154.6C552.6,516,521.7,512.9,488.5,512.9z"/>
  </symbol>
  <!-- Twitch -->
  <symbol id="icon-twitch" viewBox="0 0 24 24" fill="currentColor">
    <path d="M11.571 4.714h1.715v5.143H11.57zm4.715 0H18v5.143h-1.714zM6 0L1.714 4.286v15.428h5.143V24l4.286-4.286h3.428L22.286 12V0zm14.571 11.143l-3.428 3.428h-3.429l-3 3v-3H6.857V1.714h13.714Z"/>
  </symbol>
</svg>
